<svg xmlns="http://www.w3.org/2000/svg" xmlns:xlink="http://www.w3.org/1999/xlink" xmlns:lucid="lucid" width="2492" height="672.63"><g transform="translate(-709 1000.7552083333334)" lucid:page-tab-id="0_0"><path d="M500-1500h3000V0H500z" fill="#fff"/><path d="M1860-857.04a6 6 0 0 1 6-6h268a6 6 0 0 1 6 6v521.9a6 6 0 0 1-6 6h-268a6 6 0 0 1-6-6z" stroke="#000" stroke-width="2" fill="#fff"/><use xlink:href="#a" transform="matrix(1,0,0,1,1872,-851.0418938422065) translate(64.45290798611111 21.52777777777778)"/><use xlink:href="#b" transform="matrix(1,0,0,1,1872,-851.0418938422065) translate(145.44249131944446 21.52777777777778)"/><path d="M1360-674a6 6 0 0 1 6-6h428a6 6 0 0 1 6 6v115.78a6 6 0 0 1-6 6h-428a6 6 0 0 1-6-6z" stroke="#000" stroke-width="2" fill="#fff"/><use xlink:href="#c" transform="matrix(1,0,0,1,1372,-668) translate(141.79991319444446 21.52777777777778)"/><use xlink:href="#d" transform="matrix(1,0,0,1,1372,-668) translate(208.40147569444446 21.52777777777778)"/><path d="M920-732.17c22.1 0 40 17.9 40 40s-17.9 40-40 40h-80c-22.1 0-40-17.9-40-40s17.9-40 40-40z" stroke="#000" stroke-width="2" fill="#fff"/><use xlink:href="#c" transform="matrix(1,0,0,1,805,-727.1675753688261) translate(37.179904513888886 43.40277777777778)"/><use xlink:href="#e" transform="matrix(1,0,0,1,805,-727.1675753688261) translate(103.78146701388889 43.40277777777778)"/><path d="M920-532.17c22.1 0 40 17.9 40 40s-17.9 40-40 40h-80c-22.1 0-40-17.9-40-40s17.9-40 40-40z" stroke="#000" stroke-width="2" fill="#fff"/><use xlink:href="#c" transform="matrix(1,0,0,1,805,-527.1675753688261) translate(34.836154513888886 43.40277777777778)"/><use xlink:href="#f" transform="matrix(1,0,0,1,805,-527.1675753688261) translate(101.43771701388889 43.40277777777778)"/><path d="M920-632.17c22.1 0 40 17.9 40 40s-17.9 40-40 40h-80c-22.1 0-40-17.9-40-40s17.9-40 40-40z" stroke="#000" stroke-width="2" fill="#fff"/><use xlink:href="#c" transform="matrix(1,0,0,1,805,-627.1675753688261) translate(34.92296006944444 43.40277777777778)"/><use xlink:href="#g" transform="matrix(1,0,0,1,805,-627.1675753688261) translate(101.52452256944444 43.40277777777778)"/><path d="M1040-774a6 6 0 0 1 6-6h268a6 6 0 0 1 6 6v363.67a6 6 0 0 1-6 6h-268a6 6 0 0 1-6-6z" stroke="#000" stroke-width="2" fill="#fff"/><use xlink:href="#h" transform="matrix(1,0,0,1,1052,-768) translate(17.892578125000014 21.52777777777778)"/><path d="M1220-632.2c22.1 0 40 17.9 40 40 0 22.08-17.9 40-40 40h-80c-22.1 0-40-17.92-40-40 0-22.1 17.9-40 40-40z" stroke="#000" stroke-width="2" fill="#fff"/><use xlink:href="#i" transform="matrix(1,0,0,1,1105,-627.2146256365249) translate(37.63520833333333 25.90277777777778)"/><use xlink:href="#j" transform="matrix(1,0,0,1,1105,-627.2146256365249) translate(40.35330729166667 58.16840277777778)"/><path d="M1380-631.66a6 6 0 0 1 6-6h88a6 6 0 0 1 6 6v71.15a6 6 0 0 1-6 6h-88a6 6 0 0 1-6-6z" stroke="#000" stroke-width="2" fill="#fff"/><use xlink:href="#k" transform="matrix(1,0,0,1,1392,-625.6606106010796) translate(7.82421875 25.27777777777778)"/><use xlink:href="#l" transform="matrix(1,0,0,1,1392,-625.6606106010796) translate(33.480685763888886 57.54340277777778)"/><path d="M1680-631.66a6 6 0 0 1 6-6h88a6 6 0 0 1 6 6v71.15a6 6 0 0 1-6 6h-88a6 6 0 0 1-6-6z" stroke="#000" stroke-width="2" fill="#fff"/><use xlink:href="#m" transform="matrix(1,0,0,1,1692,-625.6606106010796) translate(28.397135416666664 36.52777777777778)"/><path d="M1580-631.66a6 6 0 0 1 6-6h88a6 6 0 0 1 6 6v71.15a6 6 0 0 1-6 6h-88a6 6 0 0 1-6-6z" stroke="#000" stroke-width="2" fill="#fff"/><use xlink:href="#n" transform="matrix(1,0,0,1,1592,-625.6606106010796) translate(7.82421875 25.27777777777778)"/><use xlink:href="#o" transform="matrix(1,0,0,1,1592,-625.6606106010796) translate(31.13693576388889 57.54340277777778)"/><path d="M1480-631.66a6 6 0 0 1 6-6h88a6 6 0 0 1 6 6v71.15a6 6 0 0 1-6 6h-88a6 6 0 0 1-6-6z" stroke="#000" stroke-width="2" fill="#fff"/><use xlink:href="#p" transform="matrix(1,0,0,1,1492,-625.6606106010796) translate(7.82421875 25.27777777777778)"/><use xlink:href="#q" transform="matrix(1,0,0,1,1492,-625.6606106010796) translate(31.223741319444443 57.54340277777778)"/><path d="M1261.5-592.2h48.5v-.02h32.62" stroke="#3a414a" fill="none"/><path d="M1261.5-591.74h-.53l.03-.46-.02-.5h.53z" stroke="#3a414a" stroke-width=".05" fill="#3a414a"/><path d="M1357.38-592.22l-14.26 4.63v-9.26z" stroke="#3a414a" fill="#3a414a"/><path d="M962-692.17h62a6 6 0 0 1 6 6v87.95a6 6 0 0 0 6 6h44.5" stroke="#1071e5" stroke-width="2" fill="none"/><path d="M962.03-691.2h-1.1l.07-.95-.03-1h1.06z" stroke="#1071e5" stroke-width=".05" fill="#1071e5"/><path d="M1095.76-592.2l-14.26 4.62v-9.27z" stroke="#1071e5" stroke-width="2" fill="#1071e5"/><path d="M962-592.17h67.98a.02.02 0 0 0 .02-.02.02.02 0 0 1 .02 0h50.48" stroke="#e81313" stroke-width="2" fill="none"/><path d="M962.03-591.2h-1.1l.07-.95-.03-1h1.06z" stroke="#e81313" stroke-width=".05" fill="#e81313"/><path d="M1095.76-592.2l-14.26 4.62v-9.27z" stroke="#e81313" stroke-width="2" fill="#e81313"/><path d="M962-492.17h62a6 6 0 0 0 6-6v-88.05a6 6 0 0 1 6-6h44.5" stroke="#54c45e" stroke-width="2" fill="none"/><path d="M962.03-491.2h-1.1l.07-.95-.03-1h1.06z" stroke="#54c45e" stroke-width=".05" fill="#54c45e"/><path d="M1095.76-592.2l-14.26 4.62v-9.27z" stroke="#54c45e" stroke-width="2" fill="#54c45e"/><path d="M2040-786.08c22.1 0 40 17.9 40 40s-17.9 40-40 40h-80c-22.1 0-40-17.9-40-40s17.9-40 40-40z" stroke="#000" stroke-width="2" fill="#fff"/><use xlink:href="#r" transform="matrix(1,0,0,1,1925,-781.083787684413) translate(29.443359375 43.40277777777778)"/><use xlink:href="#e" transform="matrix(1,0,0,1,1925,-781.083787684413) translate(111.51801215277779 43.40277777777778)"/><path d="M2040-586.08c22.1 0 40 17.9 40 40s-17.9 40-40 40h-80c-22.1 0-40-17.9-40-40s17.9-40 40-40z" stroke="#000" stroke-width="2" fill="#fff"/><use xlink:href="#r" transform="matrix(1,0,0,1,1925,-581.083787684413) translate(27.099609375 43.40277777777778)"/><use xlink:href="#f" transform="matrix(1,0,0,1,1925,-581.083787684413) translate(109.17426215277779 43.40277777777778)"/><path d="M2040-686.08c22.1 0 40 17.9 40 40s-17.9 40-40 40h-80c-22.1 0-40-17.9-40-40s17.9-40 40-40z" stroke="#000" stroke-width="2" fill="#fff"/><use xlink:href="#r" transform="matrix(1,0,0,1,1925,-681.083787684413) translate(27.18641493055555 43.40277777777778)"/><use xlink:href="#g" transform="matrix(1,0,0,1,1925,-681.083787684413) translate(109.26106770833334 43.40277777777778)"/><path d="M2040-486.08c22.1 0 40 17.9 40 40s-17.9 40-40 40h-80c-22.1 0-40-17.9-40-40s17.9-40 40-40z" stroke="#000" stroke-width="2" fill="#fff"/><use xlink:href="#r" transform="matrix(1,0,0,1,1925,-481.083787684413) translate(26.784939236111107 43.40277777777778)"/><use xlink:href="#s" transform="matrix(1,0,0,1,1925,-481.083787684413) translate(108.85959201388889 43.40277777777778)"/><path d="M1782-596.08h62a6 6 0 0 0 6-6v-138a6 6 0 0 1 6-6h44.5" stroke="#e81313" stroke-width="2" fill="none"/><path d="M1782.03-595.1H1781v-1.96h1.03z" stroke="#e81313" stroke-width=".05" fill="#e81313"/><path d="M1915.76-746.08l-14.26 4.63v-9.27z" stroke="#e81313" stroke-width="2" fill="#e81313"/><path d="M1782-596.08h62a6 6 0 0 0 6-6v-38a6 6 0 0 1 6-6h44.5" stroke="#1071e5" stroke-width="2" fill="none"/><path d="M1782.03-595.1H1781v-1.96h1.03z" stroke="#1071e5" stroke-width=".05" fill="#1071e5"/><path d="M1915.76-646.08l-14.26 4.63v-9.27z" stroke="#1071e5" stroke-width="2" fill="#1071e5"/><path d="M1782-596.08h62a6 6 0 0 1 6 6v138a6 6 0 0 0 6 6h44.5" stroke="#54c45e" stroke-width="2" fill="none"/><path d="M1782.03-595.1H1781v-1.96h1.03z" stroke="#54c45e" stroke-width=".05" fill="#54c45e"/><path d="M1915.76-446.08l-14.26 4.63v-9.27z" stroke="#54c45e" stroke-width="2" fill="#54c45e"/><path d="M1040-834a6 6 0 0 1 6-6h268a6 6 0 0 1 6 6v48a6 6 0 0 1-6 6h-268a6 6 0 0 1-6-6z" stroke="#000" stroke-width="2" fill="#fff"/><use xlink:href="#t" transform="matrix(1,0,0,1,1045,-835) translate(78.12608506944443 34.02777777777778)"/><path d="M2344.4-643.5a15.74 15.74 0 0 1 11.2 0l118.8 45.28a2.3 2.3 0 0 1 0 4.27l-118.8 45.3a15.74 15.74 0 0 1-11.2 0l-118.8-45.3a2.3 2.3 0 0 1 0-4.27z" stroke="#000" stroke-width="2" fill="#fff"/><use xlink:href="#u" transform="matrix(1,0,0,1,2232,-633.6466284477227) translate(58.23937500000001 45.27777777777778)"/><use xlink:href="#v" transform="matrix(1,0,0,1,2232,-633.6466284477227) translate(115.54189236111112 45.27777777777778)"/><path d="M2082-746.08h64.06a6 6 0 0 1 6 6v138a6 6 0 0 0 6 6h46.57" stroke="#e81313" stroke-width="2" fill="none"/><path d="M2082.03-745.1h-1.1l.07-.97-.03-1h1.06z" stroke="#e81313" stroke-width=".05" fill="#e81313"/><path d="M2219.9-596.08l-14.28 4.63v-9.27z" stroke="#e81313" stroke-width="2" fill="#e81313"/><path d="M2082-646.08h64.06a6 6 0 0 1 6 6v38a6 6 0 0 0 6 6h46.57" stroke="#1071e5" stroke-width="2" fill="none"/><path d="M2082.03-645.1h-1.1l.07-.97-.03-1h1.06z" stroke="#1071e5" stroke-width=".05" fill="#1071e5"/><path d="M2219.9-596.08l-14.28 4.63v-9.27z" stroke="#1071e5" stroke-width="2" fill="#1071e5"/><path d="M2082-446.08h64.06a6 6 0 0 0 6-6v-138a6 6 0 0 1 6-6h46.57" stroke="#54c45e" stroke-width="2" fill="none"/><path d="M2082.03-445.1h-1.1l.07-.97-.03-1h1.06z" stroke="#54c45e" stroke-width=".05" fill="#54c45e"/><path d="M2219.9-596.08l-14.28 4.63v-9.27z" stroke="#54c45e" stroke-width="2" fill="#54c45e"/><path d="M2350-646.54V-894a6 6 0 0 0-6-6H765a6 6 0 0 0-6 6v295.83a6 6 0 0 0 6 6h15.5" stroke="#e81313" stroke-width="2" fill="none"/><path d="M2350.97-645.5l-.97-.04-.97.03v-1.07h1.94z" stroke="#e81313" stroke-width=".05" fill="#e81313"/><path d="M795.76-592.17l-14.26 4.64v-9.27z" stroke="#e81313" stroke-width="2" fill="#e81313"/><use xlink:href="#w" transform="matrix(1,0,0,1,1560.7742812538988,-925.5104166666667) translate(0 17.22222222222222)"/><use xlink:href="#x" transform="matrix(1,0,0,1,1560.7742812538988,-925.5104166666667) translate(47.32638888888889 17.22222222222222)"/><use xlink:href="#y" transform="matrix(1,0,0,1,1560.7742812538988,-925.5104166666667) translate(136.34548611111111 17.22222222222222)"/><use xlink:href="#z" transform="matrix(1,0,0,1,1560.7742812538988,-925.5104166666667) translate(197.96006944444446 17.22222222222222)"/><path d="M2345.1-950.9l1.06.26 1 .42.94.58.83.7.72.84.57.93.42 1 .25 1.08.07 1.06v297.5h-1.94v-297.42l-.07-.83-.18-.75-.3-.73-.42-.67-.5-.6-.6-.5-.68-.43-.73-.3-.76-.18-.84-.06h-685.1V-951h685.18zM1418.75-949H746.04l-.83.06-.75.18-.73.3-.67.42-.6.5-.5.6-.43.68-.3.73-.18.76-.06.84v245.75l.06.82.18.76.3.73.42.68.5.6.6.5.68.43.73.3.76.2.84.06h34.46v1.95h-34.54l-1.05-.07-1.06-.26-1-.42-.94-.57-.83-.7-.72-.85-.57-.93-.42-1-.25-1.08-.08-1.05v-245.9l.1-1.06.24-1.06.42-1 .58-.94.7-.83.84-.72.93-.57 1-.42 1.08-.25 1.06-.08h672.8z" stroke="#6db1ff" stroke-width=".05" fill="#6db1ff"/><path d="M2350.97-645.5l-.97-.04-.97.03v-1.07h1.94z" fill="#6db1ff"/><path stroke="#6db1ff" stroke-width=".05" fill="#6db1ff"/><path d="M795.76-692.17l-14.26 4.64v-9.27z" fill="#6db1ff"/><path d="M798.92-692.17l-18.4 5.98v-11.94zm-16.45 3.3l10.14-3.3-10.13-3.3z" stroke="#6db1ff" stroke-width=".05" fill="#6db1ff"/><use xlink:href="#w" transform="matrix(1,0,0,1,1418.7608566226588,-960.7552083333334) translate(0 17.22222222222222)"/><use xlink:href="#x" transform="matrix(1,0,0,1,1418.7608566226588,-960.7552083333334) translate(47.32638888888889 17.22222222222222)"/><use xlink:href="#A" transform="matrix(1,0,0,1,1418.7608566226588,-960.7552083333334) translate(136.34548611111111 17.22222222222222)"/><use xlink:href="#z" transform="matrix(1,0,0,1,1418.7608566226588,-960.7552083333334) translate(197.78645833333334 17.22222222222222)"/><path d="M1288.6-989.02H716.03l-.83.06-.75.18-.73.3-.67.42-.6.5-.5.6-.43.68-.3.73-.18.76-.06.84v485.75l.06.82.18.76.3.73.42.68.5.6.6.5.68.43.73.3.76.2.84.06h64.46v1.95h-64.54l-1.05-.07-1.06-.26-1-.42-.94-.57-.83-.7-.72-.85-.57-.93-.42-1-.25-1.08-.08-1.05v-485.9l.1-1.06.24-1.06.42-1 .58-.94.7-.83.84-.72.93-.57 1-.42 1.08-.25 1.06-.08h572.63zm1056.5-1.87l1.06.26 1 .42.94.58.83.7.72.84.57.93.42 1 .25 1.08.07 1.06v337.5h-1.94v-337.42l-.07-.83-.18-.75-.3-.73-.42-.67-.5-.6-.6-.5-.68-.43-.73-.3-.76-.18-.84-.06h-814.93V-991h815z" stroke="#54c45e" stroke-width=".05" fill="#54c45e"/><path d="M2350.97-645.5l-.97-.04-.97.03v-1.07h1.94z" fill="#54c45e"/><path stroke="#54c45e" stroke-width=".05" fill="#54c45e"/><path d="M795.76-492.17l-14.26 4.64v-9.27z" fill="#54c45e"/><path d="M798.92-492.17l-18.4 5.98v-11.94zm-16.45 3.3l10.14-3.3-10.13-3.3z" stroke="#54c45e" stroke-width=".05" fill="#54c45e"/><use xlink:href="#w" transform="matrix(1,0,0,1,1288.5915857893253,-1000.7552083333334) translate(0 17.22222222222222)"/><use xlink:href="#B" transform="matrix(1,0,0,1,1288.5915857893253,-1000.7552083333334) translate(47.32638888888889 17.22222222222222)"/><use xlink:href="#A" transform="matrix(1,0,0,1,1288.5915857893253,-1000.7552083333334) translate(136.6840277777778 17.22222222222222)"/><use xlink:href="#z" transform="matrix(1,0,0,1,1288.5915857893253,-1000.7552083333334) translate(198.12500000000003 17.22222222222222)"/><path d="M2360-680.08a6 6 0 0 1 6-6h28a6 6 0 0 1 6 6v25.66a6 6 0 0 1-6 6h-28a6 6 0 0 1-6-6z" stroke="#000" stroke-opacity="0" stroke-width="2" fill="#fff"/><use xlink:href="#C" transform="matrix(1,0,0,1,2365,-681.083787684413) translate(-0.03363715277777857 22.08376736111111)"/><path d="M2740-736.08c22.1 0 40 17.9 40 40s-17.9 40-40 40h-140c-22.1 0-40-17.9-40-40s17.9-40 40-40z" stroke="#000" stroke-width="2" fill="#fff"/><use xlink:href="#D" transform="matrix(1,0,0,1,2565,-731.083787684413) translate(6.448567708333329 43.40277777777778)"/><path d="M2740-536.08c22.1 0 40 17.9 40 40s-17.9 40-40 40h-140c-22.1 0-40-17.9-40-40s17.9-40 40-40z" stroke="#000" stroke-width="2" fill="#fff"/><use xlink:href="#D" transform="matrix(1,0,0,1,2565,-531.083787684413) translate(6.448567708333329 43.40277777777778)"/><path d="M2740-636.08c22.1 0 40 17.9 40 40s-17.9 40-40 40h-140c-22.1 0-40-17.9-40-40s17.9-40 40-40z" stroke="#000" stroke-width="2" fill="#fff"/><use xlink:href="#D" transform="matrix(1,0,0,1,2565,-631.083787684413) translate(6.448567708333329 43.40277777777778)"/><path d="M3200-477.8c0 16.35-70.75 29.6-158 29.6-87.28 0-158.03-13.25-158.03-29.6v-236.58c0-16.34 70.75-29.58 158.02-29.58 87.25 0 158 13.25 158 29.58z" stroke="#000" stroke-width="2" fill="#fff"/><path d="M3200-714.38c0 16.33-70.75 29.57-158 29.57-87.28 0-158.03-13.25-158.03-29.58" stroke="#000" stroke-width="2" fill="none"/><use xlink:href="#E" transform="matrix(1,0,0,1,2888.9692423966344,-679.8069617682273) translate(85.48784722222223 120.84027777777777)"/><path d="M2502.14-595.1h-24.27v-1.96h24.27zm38.36-100h-16.53l-.82.06-.76.18-.74.3-.67.4-.6.52-.53.6-.4.68-.3.72-.2.77-.06.83v83.2h-1.94v-83.28l.08-1.05.26-1.07.42-1 .57-.94.7-.84.84-.7.93-.58 1-.42 1.07-.26 1.06-.08h16.6z" stroke="#e81313" stroke-width=".05" fill="#e81313"/><path d="M2477.9-595.1h-1.2l.08-.2.1-.78-.1-.8-.07-.18h1.2z" fill="#e81313"/><path stroke="#e81313" stroke-width=".05" fill="#e81313"/><path d="M2555.76-696.08l-14.26 4.63v-9.27z" fill="#e81313"/><path d="M2558.92-696.08l-18.4 5.97v-11.96zm-16.45 3.3l10.14-3.3-10.13-3.3z" stroke="#e81313" stroke-width=".05" fill="#e81313"/><path d="M2502.14-595.6h-24.77v-.96h24.77zm40.47 0h-8.86v-.96h8.88z" stroke="#1071e5" stroke-width=".05" fill="#1071e5"/><path d="M2477.4-595.6h-.58l.05-.48-.05-.48h.57z" fill="#1071e5"/><path stroke="#1071e5" stroke-width=".05" fill="#1071e5"/><path d="M2557.38-596.08l-14.27 4.63v-9.27z" fill="#1071e5"/><path d="M2558.92-596.08l-16.28 5.3v-10.6zm-15.33 3.98l12.24-3.98-12.25-4z" stroke="#1071e5" stroke-width=".05" fill="#1071e5"/><g><use xlink:href="#F" transform="matrix(1,0,0,1,2502.137826009014,-606.8389960177464) translate(0 17.22222222222222)"/></g><path d="M2518.4-502.1l.08.88.2.84.34.8.45.74.56.66.66.56.73.46.8.33.84.2.88.07h18.66v.95h-18.68l-1-.1-1-.22-.92-.4-.87-.52-.77-.66-.66-.78-.53-.86-.4-.94-.23-1-.08-1v-83.25h.95zm-41.03-93.5v-.96h24.77v.95z" stroke="#54c45e" stroke-width=".05" fill="#54c45e"/><path d="M2477.4-595.6h-.58l.05-.48-.05-.48h.57z" fill="#54c45e"/><path stroke="#54c45e" stroke-width=".05" fill="#54c45e"/><path d="M2557.38-496.08l-14.27 4.63v-9.27z" fill="#54c45e"/><path d="M2558.92-496.08l-16.28 5.28v-10.57zm-15.33 3.98l12.24-3.98-12.25-4z" stroke="#54c45e" stroke-width=".05" fill="#54c45e"/><path d="M2781.5-696.08h62.5a6 6 0 0 1 6 6v89.97a6 6 0 0 0 6 6h10.6" stroke="#e81313" fill="none"/><path d="M2781.5-695.6h-.53l.03-.47-.02-.5h.53z" stroke="#e81313" stroke-width=".05" fill="#e81313"/><path d="M2881.35-594.1l-14.26 4.62v-9.27z" stroke="#e81313" fill="#e81313"/><path d="M2781.5-596.08h85.1" stroke="#1071e5" fill="none"/><path d="M2781.5-595.6h-.53l.03-.47-.02-.5h.53z" stroke="#1071e5" stroke-width=".05" fill="#1071e5"/><path d="M2881.35-596.08l-14.26 4.63v-9.27z" stroke="#1071e5" fill="#1071e5"/><path d="M2782-496.08h91.03a6 6 0 0 0 6-6v-73.53" stroke="#54c45e" stroke-width="2" fill="none"/><path d="M2782.03-495.1h-1.1l.07-.97-.03-1h1.06z" stroke="#54c45e" stroke-width=".05" fill="#54c45e"/><path d="M2879.03-590.88l4.64 14.27h-9.27z" stroke="#54c45e" stroke-width="2" fill="#54c45e"/><defs><path d="M98-1322v-168h1126v168H757V0H567v-1322H98" id="G"/><path d="M338-670V0H158v-1490h180v566c73-149 190-208 336-208 226 0 379 139 379 422V0H872v-695c0-172-96-275-252-275-161 0-282 109-282 300" id="H"/><path d="M158 0v-1118h174v172h12c41-113 157-188 290-188 26 0 70 2 91 3v181c-11-2-60-10-108-10-161 0-279 109-279 260V0H158" id="I"/><path d="M628 24c-324 0-524-230-524-574 0-343 198-582 503-582 237 0 487 146 487 559v75H286c9 234 145 362 343 362 132 0 231-58 273-172l174 48C1024-91 857 24 628 24zM287-650h624c-17-190-120-322-304-322-192 0-309 151-320 322" id="J"/><path d="M471 26C259 26 90-98 90-318c0-256 228-303 435-329 202-27 287-16 287-108 0-139-79-219-234-219-161 0-248 86-283 164l-173-57c86-203 278-265 451-265 150 0 419 46 419 395V0H815v-152h-12C765-73 660 26 471 26zm31-159c199 0 310-134 310-271v-155c-30 35-226 55-295 64-131 17-246 59-246 186 0 116 97 176 231 176" id="K"/><path d="M577 24c-279 0-473-224-473-580 0-354 195-576 474-576 218 0 287 134 324 193h14v-551h180V0H922v-173h-20C865-111 790 24 577 24zm27-161c203 0 314-172 314-421 0-247-108-413-314-413-212 0-317 181-317 413 0 235 108 421 317 421" id="L"/><g id="a"><use transform="matrix(0.010850694444444444,0,0,0.010850694444444444,0,0)" xlink:href="#G"/><use transform="matrix(0.010850694444444444,0,0,0.010850694444444444,14.344618055555555,0)" xlink:href="#H"/><use transform="matrix(0.010850694444444444,0,0,0.010850694444444444,27.48480902777778,0)" xlink:href="#I"/><use transform="matrix(0.010850694444444444,0,0,0.010850694444444444,35.481770833333336,0)" xlink:href="#J"/><use transform="matrix(0.010850694444444444,0,0,0.010850694444444444,48.654513888888886,0)" xlink:href="#K"/><use transform="matrix(0.010850694444444444,0,0,0.010850694444444444,61.1328125,0)" xlink:href="#L"/></g><path d="M180 0v-1490h510c348 0 508 209 508 474 0 266-160 477-507 477H370V0H180zm190-706h312c236 0 327-133 327-310 0-176-91-307-329-307H370v617" id="M"/><path d="M613 24c-304 0-509-231-509-576 0-350 205-580 509-580 305 0 511 230 511 580 0 345-206 576-511 576zm0-161c226 0 329-195 329-415 0-222-103-419-329-419-223 0-326 196-326 419 0 220 103 415 326 415" id="N"/><path d="M338-1490V0H158v-1490h180" id="O"/><g id="b"><use transform="matrix(0.010850694444444444,0,0,0.010850694444444444,0,0)" xlink:href="#M"/><use transform="matrix(0.010850694444444444,0,0,0.010850694444444444,14.073350694444445,0)" xlink:href="#N"/><use transform="matrix(0.010850694444444444,0,0,0.010850694444444444,27.39800347222222,0)" xlink:href="#N"/><use transform="matrix(0.010850694444444444,0,0,0.010850694444444444,40.72265625,0)" xlink:href="#O"/></g><path d="M783 20c-382 0-661-292-661-764 0-473 279-766 661-766 302 0 548 182 601 489h-190c-42-204-217-313-411-313-268 0-476 208-476 590 0 381 209 588 476 588 195 0 369-110 411-313h190c-52 303-296 489-601 489" id="P"/><path d="M158 0v-1118h180V0H158zm91-1301c-68 0-125-53-125-119s57-119 125-119c69 0 126 53 126 119s-57 119-126 119" id="Q"/><path d="M338-670V0H158v-1118h173l1 207c72-158 192-221 342-221 226 0 378 139 378 422V0H872v-695c0-172-96-275-252-275-161 0-282 109-282 300" id="R"/><path d="M598-1118v154H368v674c0 100 37 144 132 144 23 0 62-6 92-12L629-6c-37 13-88 20-134 20-193 0-307-107-307-290v-688H20v-154h168v-266h180v266h230" id="S"/><g id="c"><use transform="matrix(0.010850694444444444,0,0,0.010850694444444444,0,0)" xlink:href="#P"/><use transform="matrix(0.010850694444444444,0,0,0.010850694444444444,16.23263888888889,0)" xlink:href="#O"/><use transform="matrix(0.010850694444444444,0,0,0.010850694444444444,21.614583333333336,0)" xlink:href="#Q"/><use transform="matrix(0.010850694444444444,0,0,0.010850694444444444,26.99652777777778,0)" xlink:href="#J"/><use transform="matrix(0.010850694444444444,0,0,0.010850694444444444,39.95225694444444,0)" xlink:href="#R"/><use transform="matrix(0.010850694444444444,0,0,0.010850694444444444,53.08159722222222,0)" xlink:href="#S"/></g><path d="M1096 418H916v-591h-14C865-111 790 24 577 24c-279 0-473-224-473-580 0-354 195-576 474-576 218 0 287 134 324 193h20v-179h174V418zM604-137c203 0 314-172 314-421 0-247-108-413-314-413-212 0-317 181-317 413 0 235 108 421 317 421" id="T"/><path d="M537 14c-226 0-379-139-379-422v-710h180v695c0 172 97 275 253 275 160 0 281-109 281-300v-670h181V0H879v-209C806-46 684 14 537 14" id="U"/><g id="d"><use transform="matrix(0.010850694444444444,0,0,0.010850694444444444,0,0)" xlink:href="#T"/><use transform="matrix(0.010850694444444444,0,0,0.010850694444444444,13.606770833333332,0)" xlink:href="#U"/><use transform="matrix(0.010850694444444444,0,0,0.010850694444444444,26.746961805555554,0)" xlink:href="#J"/><use transform="matrix(0.010850694444444444,0,0,0.010850694444444444,39.70269097222222,0)" xlink:href="#U"/><use transform="matrix(0.010850694444444444,0,0,0.010850694444444444,52.84288194444444,0)" xlink:href="#J"/></g><path d="M653-1490V0H466v-1314h-10L96-1047v-204l324-239h233" id="V"/><use transform="matrix(0.010850694444444444,0,0,0.010850694444444444,0,0)" xlink:href="#V" id="e"/><path d="M635 20c-292 0-500-160-510-396h192c11 142 145 229 315 229 187 0 323-105 323-260 0-161-125-274-346-274H488v-165h121c174 0 294-100 294-254 0-148-104-245-266-245-152 0-291 85-297 230H157c8-234 222-395 484-395 278 0 448 188 448 400 0 168-95 291-247 336v12c190 31 301 169 301 357 0 244-216 425-508 425" id="W"/><use transform="matrix(0.010850694444444444,0,0,0.010850694444444444,0,0)" xlink:href="#W" id="f"/><path d="M154 0v-137l495-537c165-179 249-281 249-418 0-156-121-253-280-253-170 0-278 110-278 278H158c0-264 200-443 465-443 266 0 455 183 455 416 0 161-73 288-336 568L416-179v12h687V0H154" id="X"/><use transform="matrix(0.010850694444444444,0,0,0.010850694444444444,0,0)" xlink:href="#X" id="g"/><path d="M613 24c-304 0-509-231-509-576 0-350 205-580 509-580 216 0 392 114 453 309l-173 49c-33-115-133-197-280-197-223 0-326 196-326 419 0 220 103 415 326 415 150 0 252-85 285-206l172 49C1010-95 832 24 613 24" id="Y"/><path d="M158 418v-1536h174v179h20c37-59 106-193 324-193 279 0 474 222 474 576 0 356-194 580-473 580-213 0-288-135-325-197h-14v591H158zm492-555c209 0 317-186 317-421 0-232-105-413-317-413-206 0-314 166-314 413 0 249 111 421 314 421" id="Z"/><path d="M538 24C308 24 148-78 108-271l171-41c32 123 123 178 257 178 156 0 256-77 256-169 0-77-54-128-164-154l-186-44c-203-48-300-148-300-305 0-192 176-326 414-326 230 0 351 112 402 269l-163 42c-31-80-94-158-238-158-133 0-233 69-233 162 0 83 57 129 188 160l169 40c203 48 298 149 298 302 0 196-179 339-441 339" id="aa"/><path d="M218-607c0-325 108-727 258-974h175c-155 315-250 682-250 974 0 265 78 531 250 886H476C306-10 218-315 218-607" id="ab"/><path d="M96 279C273-86 346-350 346-607c0-292-95-659-250-974h175c150 246 258 650 258 974 0 297-91 602-258 886H96" id="ac"/><g id="h"><use transform="matrix(0.010850694444444444,0,0,0.010850694444444444,0,0)" xlink:href="#K"/><use transform="matrix(0.010850694444444444,0,0,0.010850694444444444,12.47829861111111,0)" xlink:href="#Y"/><use transform="matrix(0.010850694444444444,0,0,0.010850694444444444,25.17361111111111,0)" xlink:href="#Y"/><use transform="matrix(0.010850694444444444,0,0,0.010850694444444444,37.868923611111114,0)" xlink:href="#J"/><use transform="matrix(0.010850694444444444,0,0,0.010850694444444444,50.82465277777778,0)" xlink:href="#Z"/><use transform="matrix(0.010850694444444444,0,0,0.010850694444444444,64.43142361111111,0)" xlink:href="#S"/><use transform="matrix(0.010850694444444444,0,0,0.010850694444444444,71.70138888888889,0)" xlink:href="#P"/><use transform="matrix(0.010850694444444444,0,0,0.010850694444444444,87.93402777777777,0)" xlink:href="#N"/><use transform="matrix(0.010850694444444444,0,0,0.010850694444444444,101.25868055555556,0)" xlink:href="#R"/><use transform="matrix(0.010850694444444444,0,0,0.010850694444444444,114.38802083333331,0)" xlink:href="#R"/><use transform="matrix(0.010850694444444444,0,0,0.010850694444444444,127.51736111111109,0)" xlink:href="#J"/><use transform="matrix(0.010850694444444444,0,0,0.010850694444444444,140.47309027777774,0)" xlink:href="#Y"/><use transform="matrix(0.010850694444444444,0,0,0.010850694444444444,153.16840277777774,0)" xlink:href="#S"/><use transform="matrix(0.010850694444444444,0,0,0.010850694444444444,160.43836805555551,0)" xlink:href="#Q"/><use transform="matrix(0.010850694444444444,0,0,0.010850694444444444,165.82031249999997,0)" xlink:href="#N"/><use transform="matrix(0.010850694444444444,0,0,0.010850694444444444,179.14496527777774,0)" xlink:href="#R"/><use transform="matrix(0.010850694444444444,0,0,0.010850694444444444,192.27430555555551,0)" xlink:href="#aa"/><use transform="matrix(0.010850694444444444,0,0,0.010850694444444444,204.00390624999994,0)" xlink:href="#ab"/><use transform="matrix(0.010850694444444444,0,0,0.010850694444444444,212.10937499999994,0)" xlink:href="#ac"/></g><g id="i"><use transform="matrix(0.010850694444444444,0,0,0.010850694444444444,0,0)" xlink:href="#G"/><use transform="matrix(0.010850694444444444,0,0,0.010850694444444444,14.344618055555555,0)" xlink:href="#H"/><use transform="matrix(0.010850694444444444,0,0,0.010850694444444444,27.48480902777778,0)" xlink:href="#I"/><use transform="matrix(0.010850694444444444,0,0,0.010850694444444444,35.481770833333336,0)" xlink:href="#J"/><use transform="matrix(0.010850694444444444,0,0,0.010850694444444444,48.654513888888886,0)" xlink:href="#K"/><use transform="matrix(0.010850694444444444,0,0,0.010850694444444444,61.1328125,0)" xlink:href="#L"/></g><path d="M657 26c-323 0-524-166-541-416h195c15 169 171 246 346 246 202 0 356-106 356-265 5-203-294-238-475-293-239-73-380-191-380-389 0-252 224-419 512-419 294 0 499 171 508 396H992c-17-145-151-228-328-228-193 0-321 102-321 242 0 156 175 211 284 241l149 41c160 44 422 134 422 412 0 244-197 432-541 432" id="ad"/><path d="M481 0L54-1118h197c107 314 236 620 325 951 87-331 217-637 324-951h197L670 0H481" id="ae"/><g id="j"><use transform="matrix(0.010850694444444444,0,0,0.010850694444444444,0,0)" xlink:href="#ad"/><use transform="matrix(0.010850694444444444,0,0,0.010850694444444444,14.2578125,0)" xlink:href="#J"/><use transform="matrix(0.010850694444444444,0,0,0.010850694444444444,27.213541666666664,0)" xlink:href="#I"/><use transform="matrix(0.010850694444444444,0,0,0.010850694444444444,35.92664930555555,0)" xlink:href="#ae"/><use transform="matrix(0.010850694444444444,0,0,0.010850694444444444,47.98177083333333,0)" xlink:href="#J"/><use transform="matrix(0.010850694444444444,0,0,0.010850694444444444,60.937499999999986,0)" xlink:href="#I"/></g><path fill="#1071e5" d="M783 20c-382 0-661-292-661-764 0-473 279-766 661-766 302 0 548 182 601 489h-190c-42-204-217-313-411-313-268 0-476 208-476 590 0 381 209 588 476 588 195 0 369-110 411-313h190c-52 303-296 489-601 489" id="af"/><path fill="#1071e5" d="M338-1490V0H158v-1490h180" id="ag"/><path fill="#1071e5" d="M158 0v-1118h180V0H158zm91-1301c-68 0-125-53-125-119s57-119 125-119c69 0 126 53 126 119s-57 119-126 119" id="ah"/><path fill="#1071e5" d="M628 24c-324 0-524-230-524-574 0-343 198-582 503-582 237 0 487 146 487 559v75H286c9 234 145 362 343 362 132 0 231-58 273-172l174 48C1024-91 857 24 628 24zM287-650h624c-17-190-120-322-304-322-192 0-309 151-320 322" id="ai"/><path fill="#1071e5" d="M338-670V0H158v-1118h173l1 207c72-158 192-221 342-221 226 0 378 139 378 422V0H872v-695c0-172-96-275-252-275-161 0-282 109-282 300" id="aj"/><path fill="#1071e5" d="M598-1118v154H368v674c0 100 37 144 132 144 23 0 62-6 92-12L629-6c-37 13-88 20-134 20-193 0-307-107-307-290v-688H20v-154h168v-266h180v266h230" id="ak"/><g id="k"><use transform="matrix(0.010850694444444444,0,0,0.010850694444444444,0,0)" xlink:href="#af"/><use transform="matrix(0.010850694444444444,0,0,0.010850694444444444,16.23263888888889,0)" xlink:href="#ag"/><use transform="matrix(0.010850694444444444,0,0,0.010850694444444444,21.614583333333336,0)" xlink:href="#ah"/><use transform="matrix(0.010850694444444444,0,0,0.010850694444444444,26.99652777777778,0)" xlink:href="#ai"/><use transform="matrix(0.010850694444444444,0,0,0.010850694444444444,39.95225694444444,0)" xlink:href="#aj"/><use transform="matrix(0.010850694444444444,0,0,0.010850694444444444,53.08159722222222,0)" xlink:href="#ak"/></g><path fill="#1071e5" d="M653-1490V0H466v-1314h-10L96-1047v-204l324-239h233" id="al"/><use transform="matrix(0.010850694444444444,0,0,0.010850694444444444,0,0)" xlink:href="#al" id="l"/><path d="M295 13c-75 0-135-60-135-135s60-135 135-135 135 60 135 135S370 13 295 13" id="am"/><g id="m"><use transform="matrix(0.010850694444444444,0,0,0.010850694444444444,0,0)" xlink:href="#am"/><use transform="matrix(0.010850694444444444,0,0,0.010850694444444444,6.401909722222222,0)" xlink:href="#am"/><use transform="matrix(0.010850694444444444,0,0,0.010850694444444444,12.803819444444445,0)" xlink:href="#am"/></g><path fill="#54c45e" d="M783 20c-382 0-661-292-661-764 0-473 279-766 661-766 302 0 548 182 601 489h-190c-42-204-217-313-411-313-268 0-476 208-476 590 0 381 209 588 476 588 195 0 369-110 411-313h190c-52 303-296 489-601 489" id="an"/><path fill="#54c45e" d="M338-1490V0H158v-1490h180" id="ao"/><path fill="#54c45e" d="M158 0v-1118h180V0H158zm91-1301c-68 0-125-53-125-119s57-119 125-119c69 0 126 53 126 119s-57 119-126 119" id="ap"/><path fill="#54c45e" d="M628 24c-324 0-524-230-524-574 0-343 198-582 503-582 237 0 487 146 487 559v75H286c9 234 145 362 343 362 132 0 231-58 273-172l174 48C1024-91 857 24 628 24zM287-650h624c-17-190-120-322-304-322-192 0-309 151-320 322" id="aq"/><path fill="#54c45e" d="M338-670V0H158v-1118h173l1 207c72-158 192-221 342-221 226 0 378 139 378 422V0H872v-695c0-172-96-275-252-275-161 0-282 109-282 300" id="ar"/><path fill="#54c45e" d="M598-1118v154H368v674c0 100 37 144 132 144 23 0 62-6 92-12L629-6c-37 13-88 20-134 20-193 0-307-107-307-290v-688H20v-154h168v-266h180v266h230" id="as"/><g id="n"><use transform="matrix(0.010850694444444444,0,0,0.010850694444444444,0,0)" xlink:href="#an"/><use transform="matrix(0.010850694444444444,0,0,0.010850694444444444,16.23263888888889,0)" xlink:href="#ao"/><use transform="matrix(0.010850694444444444,0,0,0.010850694444444444,21.614583333333336,0)" xlink:href="#ap"/><use transform="matrix(0.010850694444444444,0,0,0.010850694444444444,26.99652777777778,0)" xlink:href="#aq"/><use transform="matrix(0.010850694444444444,0,0,0.010850694444444444,39.95225694444444,0)" xlink:href="#ar"/><use transform="matrix(0.010850694444444444,0,0,0.010850694444444444,53.08159722222222,0)" xlink:href="#as"/></g><path fill="#54c45e" d="M635 20c-292 0-500-160-510-396h192c11 142 145 229 315 229 187 0 323-105 323-260 0-161-125-274-346-274H488v-165h121c174 0 294-100 294-254 0-148-104-245-266-245-152 0-291 85-297 230H157c8-234 222-395 484-395 278 0 448 188 448 400 0 168-95 291-247 336v12c190 31 301 169 301 357 0 244-216 425-508 425" id="at"/><use transform="matrix(0.010850694444444444,0,0,0.010850694444444444,0,0)" xlink:href="#at" id="o"/><path fill="#e81313" d="M783 20c-382 0-661-292-661-764 0-473 279-766 661-766 302 0 548 182 601 489h-190c-42-204-217-313-411-313-268 0-476 208-476 590 0 381 209 588 476 588 195 0 369-110 411-313h190c-52 303-296 489-601 489" id="au"/><path fill="#e81313" d="M338-1490V0H158v-1490h180" id="av"/><path fill="#e81313" d="M158 0v-1118h180V0H158zm91-1301c-68 0-125-53-125-119s57-119 125-119c69 0 126 53 126 119s-57 119-126 119" id="aw"/><path fill="#e81313" d="M628 24c-324 0-524-230-524-574 0-343 198-582 503-582 237 0 487 146 487 559v75H286c9 234 145 362 343 362 132 0 231-58 273-172l174 48C1024-91 857 24 628 24zM287-650h624c-17-190-120-322-304-322-192 0-309 151-320 322" id="ax"/><path fill="#e81313" d="M338-670V0H158v-1118h173l1 207c72-158 192-221 342-221 226 0 378 139 378 422V0H872v-695c0-172-96-275-252-275-161 0-282 109-282 300" id="ay"/><path fill="#e81313" d="M598-1118v154H368v674c0 100 37 144 132 144 23 0 62-6 92-12L629-6c-37 13-88 20-134 20-193 0-307-107-307-290v-688H20v-154h168v-266h180v266h230" id="az"/><g id="p"><use transform="matrix(0.010850694444444444,0,0,0.010850694444444444,0,0)" xlink:href="#au"/><use transform="matrix(0.010850694444444444,0,0,0.010850694444444444,16.23263888888889,0)" xlink:href="#av"/><use transform="matrix(0.010850694444444444,0,0,0.010850694444444444,21.614583333333336,0)" xlink:href="#aw"/><use transform="matrix(0.010850694444444444,0,0,0.010850694444444444,26.99652777777778,0)" xlink:href="#ax"/><use transform="matrix(0.010850694444444444,0,0,0.010850694444444444,39.95225694444444,0)" xlink:href="#ay"/><use transform="matrix(0.010850694444444444,0,0,0.010850694444444444,53.08159722222222,0)" xlink:href="#az"/></g><path fill="#e81313" d="M154 0v-137l495-537c165-179 249-281 249-418 0-156-121-253-280-253-170 0-278 110-278 278H158c0-264 200-443 465-443 266 0 455 183 455 416 0 161-73 288-336 568L416-179v12h687V0H154" id="aA"/><use transform="matrix(0.010850694444444444,0,0,0.010850694444444444,0,0)" xlink:href="#aA" id="q"/><path d="M458 0L52-1490h194c108 439 233 855 324 1313 92-459 221-873 331-1313h216c110 438 234 854 330 1307 92-455 216-869 323-1307h196L1558 0h-221l-256-944c-26-95-50-200-73-331-22 122-44 223-73 331L680 0H458" id="aB"/><path d="M158 0v-1490h180v865h22l478-493h223L593-638 1096 0H865L456-523 338-412V0H158" id="aC"/><g id="r"><use transform="matrix(0.010850694444444444,0,0,0.010850694444444444,0,0)" xlink:href="#aB"/><use transform="matrix(0.010850694444444444,0,0,0.010850694444444444,20.768229166666668,0)" xlink:href="#N"/><use transform="matrix(0.010850694444444444,0,0,0.010850694444444444,34.09288194444444,0)" xlink:href="#I"/><use transform="matrix(0.010850694444444444,0,0,0.010850694444444444,42.80598958333333,0)" xlink:href="#aC"/><use transform="matrix(0.010850694444444444,0,0,0.010850694444444444,54.50303819444444,0)" xlink:href="#J"/><use transform="matrix(0.010850694444444444,0,0,0.010850694444444444,67.45876736111111,0)" xlink:href="#I"/></g><path d="M120-303v-155l652-1032h231v1020h202v167h-202V0H821v-303H120zm702-167v-782h-12L323-482v12h499" id="aD"/><use transform="matrix(0.010850694444444444,0,0,0.010850694444444444,0,0)" xlink:href="#aD" id="s"/><path d="M180 0v-1490h190v644h782v-644h190V0h-190v-678H370V0H180" id="aE"/><g id="t"><use transform="matrix(0.010850694444444444,0,0,0.010850694444444444,0,0)" xlink:href="#aE"/><use transform="matrix(0.010850694444444444,0,0,0.010850694444444444,16.840277777777775,0)" xlink:href="#S"/><use transform="matrix(0.010850694444444444,0,0,0.010850694444444444,23.567708333333332,0)" xlink:href="#S"/><use transform="matrix(0.010850694444444444,0,0,0.010850694444444444,30.83767361111111,0)" xlink:href="#Z"/><use transform="matrix(0.010850694444444444,0,0,0.010850694444444444,44.44444444444444,0)" xlink:href="#ad"/><use transform="matrix(0.010850694444444444,0,0,0.010850694444444444,58.70225694444444,0)" xlink:href="#J"/><use transform="matrix(0.010850694444444444,0,0,0.010850694444444444,71.65798611111111,0)" xlink:href="#I"/><use transform="matrix(0.010850694444444444,0,0,0.010850694444444444,80.37109375000001,0)" xlink:href="#ae"/><use transform="matrix(0.010850694444444444,0,0,0.010850694444444444,92.4262152777778,0)" xlink:href="#J"/><use transform="matrix(0.010850694444444444,0,0,0.010850694444444444,105.38194444444449,0)" xlink:href="#I"/></g><path d="M600 0L52-1490h200c166 485 304 806 458 1336 156-533 285-846 449-1336h202L819 0H600" id="aF"/><g id="u"><use transform="matrix(0.010850694444444444,0,0,0.010850694444444444,0,0)" xlink:href="#aF"/><use transform="matrix(0.010850694444444444,0,0,0.010850694444444444,14.20355902777778,0)" xlink:href="#K"/><use transform="matrix(0.010850694444444444,0,0,0.010850694444444444,26.68185763888889,0)" xlink:href="#O"/><use transform="matrix(0.010850694444444444,0,0,0.010850694444444444,32.063802083333336,0)" xlink:href="#Q"/><use transform="matrix(0.010850694444444444,0,0,0.010850694444444444,37.44574652777778,0)" xlink:href="#L"/></g><path d="M545 20c-263 0-445-160-445-446v-80h190v80c0 182 102 279 255 279 152 0 254-97 254-279v-1064h190v1064c0 286-181 446-444 446" id="aG"/><path d="M383-449c-3-277 82-343 222-425 88-53 156-134 156-250 0-139-108-227-243-227-118 0-235 70-246 236H82c10-251 200-395 436-395 259 0 427 165 427 393 0 161-74 273-203 352-132 80-180 132-178 316H383zm93 462c-75 0-135-60-135-134 0-75 60-135 135-135 74 0 134 60 134 135 0 74-60 134-134 134" id="aH"/><g id="v"><use transform="matrix(0.010850694444444444,0,0,0.010850694444444444,0,0)" xlink:href="#aG"/><use transform="matrix(0.010850694444444444,0,0,0.010850694444444444,12.684461805555555,0)" xlink:href="#aa"/><use transform="matrix(0.010850694444444444,0,0,0.010850694444444444,24.4140625,0)" xlink:href="#N"/><use transform="matrix(0.010850694444444444,0,0,0.010850694444444444,37.73871527777778,0)" xlink:href="#R"/><use transform="matrix(0.010850694444444444,0,0,0.010850694444444444,50.86805555555556,0)" xlink:href="#aH"/></g><path fill="#333" d="M135 0v-1490h997v253H440v360h640v249H440v375h694V0H135" id="aI"/><path fill="#333" d="M128 0v-1118h290v195h12c54-169 184-238 367-200v268c-27-8-86-15-130-15-138 0-239 95-239 234V0H128" id="aJ"/><path fill="#333" d="M628 22C291 22 81-210 81-554c0-346 210-578 547-578 336 0 547 232 547 578 0 344-211 576-547 576zm0-236c160 0 242-146 242-341 0-197-82-341-242-341S387-753 387-555c0 195 81 341 241 341" id="aK"/><g id="w"><use transform="matrix(0.008680555555555556,0,0,0.008680555555555556,0,0)" xlink:href="#aI"/><use transform="matrix(0.008680555555555556,0,0,0.008680555555555556,10.79861111111111,0)" xlink:href="#aJ"/><use transform="matrix(0.008680555555555556,0,0,0.008680555555555556,18.16840277777778,0)" xlink:href="#aJ"/><use transform="matrix(0.008680555555555556,0,0,0.008680555555555556,24.973958333333336,0)" xlink:href="#aK"/><use transform="matrix(0.008680555555555556,0,0,0.008680555555555556,35.876736111111114,0)" xlink:href="#aJ"/></g><path fill="#333" d="M128 0v-1118h278l12 217c60-163 185-234 319-234 143 0 236 81 288 251 63-172 205-251 359-251 205 0 357 138 357 381V0h-301v-697c0-126-76-187-177-187-114 0-184 79-184 196V0H789v-705c0-109-72-179-174-179-106 0-187 74-187 208V0H128" id="aL"/><path fill="#333" d="M633 22C291 22 81-200 81-553c0-345 210-579 537-579 292 0 525 185 525 567v84H378c7 183 109 277 260 277 105 0 184-46 216-132l272 51C1071-99 893 22 633 22zM380-669h474c-15-146-94-237-233-237-143 0-229 99-241 237" id="aM"/><path fill="#333" d="M572 22C302 22 117-98 78-306l279-48c29 105 101 156 224 156 114 0 185-48 185-115 0-118-228-130-337-155-215-49-322-150-322-317 0-215 187-347 470-347 265 0 424 116 466 298l-266 47c-24-76-87-130-196-130-98 0-174 46-174 113 0 56 38 95 144 117l201 40c216 44 320 143 320 302 0 220-207 367-500 367" id="aN"/><path fill="#333" d="M440 22C227 22 68-92 68-313c0-250 202-322 422-343 195-21 271-24 271-105 0-95-63-149-175-149-116 0-187 57-211 129l-275-46c57-194 237-305 487-305 240 0 474 108 474 379V0H777v-155h-10C713-51 605 22 440 22zm85-211c140 0 238-93 238-211v-121c-37 26-156 42-222 51-111 16-185 59-185 149 0 87 70 132 169 132" id="aO"/><path fill="#333" d="M625 442c-280 0-454-114-503-274l258-72c28 63 97 128 243 128 153 0 246-69 246-216v-206h-23C805-108 717-16 536-16 284-16 81-191 81-561c0-378 208-571 456-571 188 0 280 113 321 202h13v-188h295V-9c0 303-226 451-541 451zm5-686c153 0 240-119 240-319 0-198-86-329-240-329-158 0-241 137-241 329 0 195 85 319 241 319" id="aP"/><path fill="#333" d="M342-723c-98 0-173-75-173-172s75-172 173-172 173 75 173 172-75 172-173 172zm0 742c-98 0-173-75-173-172s75-172 173-172 173 75 173 172S440 19 342 19" id="aQ"/><g id="x"><use transform="matrix(0.008680555555555556,0,0,0.008680555555555556,0,0)" xlink:href="#aL"/><use transform="matrix(0.008680555555555556,0,0,0.008680555555555556,16.223958333333336,0)" xlink:href="#aM"/><use transform="matrix(0.008680555555555556,0,0,0.008680555555555556,26.81423611111111,0)" xlink:href="#aN"/><use transform="matrix(0.008680555555555556,0,0,0.008680555555555556,36.770833333333336,0)" xlink:href="#aN"/><use transform="matrix(0.008680555555555556,0,0,0.008680555555555556,46.72743055555556,0)" xlink:href="#aO"/><use transform="matrix(0.008680555555555556,0,0,0.008680555555555556,57.048611111111114,0)" xlink:href="#aP"/><use transform="matrix(0.008680555555555556,0,0,0.008680555555555556,68.28125,0)" xlink:href="#aM"/><use transform="matrix(0.008680555555555556,0,0,0.008680555555555556,78.87152777777777,0)" xlink:href="#aQ"/></g><path fill="#333" d="M440-1490V0H135v-1490h305" id="aR"/><path fill="#333" d="M428-647V0H128v-1118h283l4 231c63-156 176-245 348-245 232 0 384 159 384 421V0H847v-659c0-139-76-222-202-222-128 0-217 86-217 234" id="aS"/><path fill="#333" d="M443 0L31-1118h319c90 293 199 572 268 885 66-313 175-593 264-885h315L784 0H443" id="aT"/><path fill="#333" d="M428-1490V0H128v-1490h300" id="aU"/><path fill="#333" d="M128 0v-1118h300V0H128zm150-1264c-91 0-165-68-165-154 0-85 74-154 165-154 90 0 165 69 165 154 0 86-75 154-165 154" id="aV"/><path fill="#333" d="M537 19C279 19 81-185 81-557c0-382 206-575 454-575 190 0 278 113 318 202h10v-560h300V0H868v-179h-15C812-89 719 19 537 19zm92-241c153 0 240-134 240-336 0-203-86-334-240-334-158 0-240 138-240 334 0 197 84 336 240 336" id="aW"/><g id="y"><use transform="matrix(0.008680555555555556,0,0,0.008680555555555556,0,0)" xlink:href="#aR"/><use transform="matrix(0.008680555555555556,0,0,0.008680555555555556,4.991319444444445,0)" xlink:href="#aS"/><use transform="matrix(0.008680555555555556,0,0,0.008680555555555556,15.755208333333334,0)" xlink:href="#aT"/><use transform="matrix(0.008680555555555556,0,0,0.008680555555555556,26.241319444444446,0)" xlink:href="#aO"/><use transform="matrix(0.008680555555555556,0,0,0.008680555555555556,36.5625,0)" xlink:href="#aU"/><use transform="matrix(0.008680555555555556,0,0,0.008680555555555556,41.380208333333336,0)" xlink:href="#aV"/><use transform="matrix(0.008680555555555556,0,0,0.008680555555555556,46.19791666666667,0)" xlink:href="#aW"/></g><path fill="#333" d="M567 20C257 20 68-148 68-448v-87h305v92c0 143 75 217 194 217s193-74 193-218v-1046h302v1041c0 301-188 469-495 469" id="aX"/><g id="z"><use transform="matrix(0.008680555555555556,0,0,0.008680555555555556,0,0)" xlink:href="#aX"/><use transform="matrix(0.008680555555555556,0,0,0.008680555555555556,10.390625,0)" xlink:href="#aN"/><use transform="matrix(0.008680555555555556,0,0,0.008680555555555556,20.34722222222222,0)" xlink:href="#aK"/><use transform="matrix(0.008680555555555556,0,0,0.008680555555555556,31.25,0)" xlink:href="#aS"/></g><g id="A"><use transform="matrix(0.008680555555555556,0,0,0.008680555555555556,0,0)" xlink:href="#aV"/><use transform="matrix(0.008680555555555556,0,0,0.008680555555555556,4.817708333333334,0)" xlink:href="#aS"/><use transform="matrix(0.008680555555555556,0,0,0.008680555555555556,15.581597222222223,0)" xlink:href="#aT"/><use transform="matrix(0.008680555555555556,0,0,0.008680555555555556,26.067708333333336,0)" xlink:href="#aO"/><use transform="matrix(0.008680555555555556,0,0,0.008680555555555556,36.38888888888889,0)" xlink:href="#aU"/><use transform="matrix(0.008680555555555556,0,0,0.008680555555555556,41.20659722222223,0)" xlink:href="#aV"/><use transform="matrix(0.008680555555555556,0,0,0.008680555555555556,46.024305555555564,0)" xlink:href="#aW"/></g><path fill="#333" d="M135 0v-1490h468l242 684c30 94 76 293 111 455 34-161 80-360 110-455l238-684h470V0h-307c0-447-3-765 11-1227-122 503-246 788-395 1227H826C676-435 552-717 427-1215c15 453 11 775 11 1215H135" id="aY"/><g id="B"><use transform="matrix(0.008680555555555556,0,0,0.008680555555555556,0,0)" xlink:href="#aY"/><use transform="matrix(0.008680555555555556,0,0,0.008680555555555556,16.5625,0)" xlink:href="#aM"/><use transform="matrix(0.008680555555555556,0,0,0.008680555555555556,27.15277777777778,0)" xlink:href="#aN"/><use transform="matrix(0.008680555555555556,0,0,0.008680555555555556,37.109375,0)" xlink:href="#aN"/><use transform="matrix(0.008680555555555556,0,0,0.008680555555555556,47.06597222222222,0)" xlink:href="#aO"/><use transform="matrix(0.008680555555555556,0,0,0.008680555555555556,57.38715277777778,0)" xlink:href="#aP"/><use transform="matrix(0.008680555555555556,0,0,0.008680555555555556,68.61979166666667,0)" xlink:href="#aM"/><use transform="matrix(0.008680555555555556,0,0,0.008680555555555556,79.21006944444446,0)" xlink:href="#aQ"/></g><path d="M180 0v-1490h224l606 953c40 63 108 177 176 312-27-437-7-821-13-1265h190V0h-226C860-448 622-778 356-1262c27 476 11 792 15 1262H180" id="aZ"/><g id="C"><use transform="matrix(0.010850694444444444,0,0,0.010850694444444444,0,0)" xlink:href="#aZ"/><use transform="matrix(0.010850694444444444,0,0,0.010850694444444444,16.74262152777778,0)" xlink:href="#N"/></g><path d="M158 0v-1118h175l1 205c55-151 181-225 313-225 147 0 245 90 285 228 53-141 190-228 352-228 194 0 352 125 352 384V0h-181v-749c0-161-105-225-225-225-151 0-243 103-243 244V0H807v-767c0-124-93-207-219-207-131 0-250 92-250 270V0H158" id="ba"/><path d="M180 0v-1490h510c348 0 508 194 508 460 0 198-88 351-276 417L1256 0h-220L726-579c-117 2-238 0-356 1V0H180zm190-747h312c235 0 327-108 327-283 0-177-92-293-329-293H370v576" id="bb"/><g id="D"><use transform="matrix(0.010850694444444444,0,0,0.010850694444444444,0,0)" xlink:href="#ba"/><use transform="matrix(0.010850694444444444,0,0,0.010850694444444444,19.466145833333332,0)" xlink:href="#K"/><use transform="matrix(0.010850694444444444,0,0,0.010850694444444444,31.944444444444443,0)" xlink:href="#aC"/><use transform="matrix(0.010850694444444444,0,0,0.010850694444444444,43.64149305555556,0)" xlink:href="#J"/><use transform="matrix(0.010850694444444444,0,0,0.010850694444444444,56.59722222222222,0)" xlink:href="#bb"/><use transform="matrix(0.010850694444444444,0,0,0.010850694444444444,70.57291666666666,0)" xlink:href="#J"/><use transform="matrix(0.010850694444444444,0,0,0.010850694444444444,83.52864583333333,0)" xlink:href="#aa"/><use transform="matrix(0.010850694444444444,0,0,0.010850694444444444,95.25824652777777,0)" xlink:href="#J"/><use transform="matrix(0.010850694444444444,0,0,0.010850694444444444,108.21397569444444,0)" xlink:href="#I"/><use transform="matrix(0.010850694444444444,0,0,0.010850694444444444,116.92708333333334,0)" xlink:href="#ae"/><use transform="matrix(0.010850694444444444,0,0,0.010850694444444444,129.30772569444446,0)" xlink:href="#K"/><use transform="matrix(0.010850694444444444,0,0,0.010850694444444444,141.78602430555557,0)" xlink:href="#S"/><use transform="matrix(0.010850694444444444,0,0,0.010850694444444444,149.05598958333334,0)" xlink:href="#Q"/><use transform="matrix(0.010850694444444444,0,0,0.010850694444444444,154.4379340277778,0)" xlink:href="#N"/><use transform="matrix(0.010850694444444444,0,0,0.010850694444444444,167.76258680555557,0)" xlink:href="#R"/><use transform="matrix(0.010850694444444444,0,0,0.010850694444444444,180.89192708333331,0)" xlink:href="#ab"/><use transform="matrix(0.010850694444444444,0,0,0.010850694444444444,188.99739583333331,0)" xlink:href="#ac"/></g><g id="E"><use transform="matrix(0.010850694444444444,0,0,0.010850694444444444,0,0)" xlink:href="#bb"/><use transform="matrix(0.010850694444444444,0,0,0.010850694444444444,13.975694444444445,0)" xlink:href="#J"/><use transform="matrix(0.010850694444444444,0,0,0.010850694444444444,26.931423611111104,0)" xlink:href="#aa"/><use transform="matrix(0.010850694444444444,0,0,0.010850694444444444,38.66102430555555,0)" xlink:href="#J"/><use transform="matrix(0.010850694444444444,0,0,0.010850694444444444,51.61675347222221,0)" xlink:href="#I"/><use transform="matrix(0.010850694444444444,0,0,0.010850694444444444,60.3298611111111,0)" xlink:href="#ae"/><use transform="matrix(0.010850694444444444,0,0,0.010850694444444444,72.71050347222221,0)" xlink:href="#K"/><use transform="matrix(0.010850694444444444,0,0,0.010850694444444444,85.18880208333333,0)" xlink:href="#S"/><use transform="matrix(0.010850694444444444,0,0,0.010850694444444444,92.45876736111111,0)" xlink:href="#Q"/><use transform="matrix(0.010850694444444444,0,0,0.010850694444444444,97.84071180555556,0)" xlink:href="#N"/><use transform="matrix(0.010850694444444444,0,0,0.010850694444444444,111.16536458333331,0)" xlink:href="#R"/><use transform="matrix(0.010850694444444444,0,0,0.010850694444444444,124.29470486111109,0)" xlink:href="#aa"/></g><path fill="#333" d="M601 0v-560L49-1490h357l252 464c38 68 67 130 97 208 96-243 225-446 337-672h356L905-560V0H601" id="bc"/><g id="F"><use transform="matrix(0.008680555555555556,0,0,0.008680555555555556,0,0)" xlink:href="#bc"/><use transform="matrix(0.008680555555555556,0,0,0.008680555555555556,11.050347222222223,0)" xlink:href="#aM"/><use transform="matrix(0.008680555555555556,0,0,0.008680555555555556,21.640625,0)" xlink:href="#aN"/></g></defs></g></svg>